<svg width="90px" height="48px" viewBox="0 0 260 139" xmlns="http://www.w3.org/2000/svg"><path d="M0 107.919v-105.919h18.281v105.919h-18.281zm32-.001v-74.919h18.288v74.919h-18.288zm21.311-96.765c0 6.162-4.994 11.159-11.159 11.159-6.154 0-11.153-4.997-11.153-11.159 0-6.162 4.999-11.154 11.153-11.154 6.165 0 11.159 4.992 11.159 11.154zm46.799 6.084c-6.684 0-11.211 3.634-11.211 11.625v4.042h20.063v14.404h-19.49v60.61h-18.118v-60.61h-10.355v-14.404h10.355v-5.766c0-9.736 2.178-14.966 6.247-19.034 4.072-4.069 10.378-6.105 17.934-6.105 6.11 0 9.685.872 13.609 2.036v14.69s-3.441-1.488-9.035-1.488zm47.032 12.763c31.835 0 37.583 26.729 35.389 45.007l-55.044-.033c1.567 12.574 10.519 19.055 21.848 19.055l.613-.015c11.295 0 18.954-6.524 20.857-8.322l9.754 8.661c-7.297 8.755-17.359 14.442-31.518 14.442-22.325 0-39.541-15.246-39.541-40.27 0-21.78 14.878-38.523 37.64-38.523zm-19.391 32.336h37.84c-.181-11.367-7.823-17.534-18.591-17.534-9.833 0-17.425 6.06-19.248 17.534zm92.425 34.079c0 6.838-5.537 12.372-12.376 12.372-6.835 0-12.377-5.534-12.377-12.372 0-6.836 5.541-12.379 12.377-12.379 6.839 0 12.376 5.542 12.376 12.379zm0-53.741c0 6.835-5.537 12.378-12.376 12.378-6.835 0-12.377-5.542-12.377-12.378 0-6.832 5.541-12.378 12.377-12.378 6.839 0 12.376 5.545 12.376 12.378zm14.548-42.584c15.509 18.072 24.819 44.157 24.819 69.453 0 25.298-9.31 51.388-24.819 69.458l-10.217-7.57c10.938-19.32 16.42-37.209 16.42-61.887 0-24.67-5.482-42.561-16.42-61.887l10.217-7.566z" fill="#ffffff"></path></svg>