<?xml version="1.0" standalone="no"?><!DOCTYPE svg PUBLIC "-//W3C//DTD SVG 1.1//EN" "http://www.w3.org/Graphics/SVG/1.1/DTD/svg11.dtd"><svg t="1714049630763" class="icon" viewBox="0 0 1024 1024" version="1.1" xmlns="http://www.w3.org/2000/svg" p-id="5106" xmlns:xlink="http://www.w3.org/1999/xlink" width="64" height="64"><path d="M916.1728 455.5264c-53.2992 0-149.9136-19.2-180.0192-49.3056-18.4832-18.4832-22.8352-41.6256-26.368-60.2624-4.352-22.9376-6.9632-29.7472-16.9984-34.0992-46.1824-19.8656-112.4352-31.232-181.8112-31.232-68.608 0-134.144 11.2128-179.8144 30.72-9.9328 4.2496-12.4928 11.0592-16.7424 33.9456-3.4816 18.688-7.7824 41.9328-26.2144 60.3648-16.7936 16.7936-51.968 28.3648-78.4896 35.072a431.616 431.616 0 0 1-100.5056 13.6704c-33.9968 0-56.9856-6.4512-70.2464-19.7632a122.0096 122.0096 0 0 1-35.072-75.1104C1.9968 336.1792 6.5024 301.568 38.7072 269.312c52.3264-52.3264 122.6752-93.1328 209.2032-121.2416 79.5648-25.9072 170.0864-39.5776 261.8368-39.5776 92.3648 0 183.6544 13.824 263.9872 40.0384 87.296 28.4672 158.3616 69.6832 211.1488 122.5216 53.76 53.76 40.448 125.0816 0.6144 164.9152-13.1584 13.1584-35.84 19.5584-69.3248 19.5584zM510.976 229.4272c77.1584 0 148.8896 12.5952 202.0352 35.3792 36.5056 15.6672 42.6496 48.0256 47.104 71.5776 2.6624 14.08 4.9664 26.2656 12.288 33.5872 12.9024 12.9024 87.3472 34.3552 143.8208 34.3552 24.6272 0 32.4096-4.1984 33.3824-4.8128 15.872-16.0768 35.7376-55.6032-0.8704-92.2624-92.416-92.416-256.512-147.5584-438.9888-147.5584-180.992 0-343.5008 54.528-434.8416 145.8176-14.7456 14.7456-21.504 31.5392-20.0192 49.8688 1.28 15.4624 8.704 31.4368 19.968 42.8032 0.9728 0.6144 8.8576 5.0176 34.304 5.0176 56.2176 0 130.0992-21.0432 142.7968-33.7408 7.2192-7.2192 9.472-19.4048 12.0832-33.4848 4.4032-23.6544 10.3936-56.064 46.9504-71.68 52.5312-22.4768 123.5456-34.816 199.936-34.816z" fill="" p-id="5107"></path><path d="M844.8 921.6h-665.6a121.4976 121.4976 0 0 1-122.2656-129.28c0.2048-3.9424 6.0416-97.3312 65.024-191.4368a384 384 0 0 1 137.5232-131.9424C329.1648 429.568 414.1056 409.6 512 409.6s182.8352 19.968 252.5184 59.3408a383.1296 383.1296 0 0 1 137.5232 131.9424c58.9824 94.1568 64.8192 187.5456 65.024 191.4368A121.6512 121.6512 0 0 1 844.8 921.6zM512 460.8c-159.5904 0-275.8656 55.7056-345.5488 165.5296-52.736 83.0976-58.3168 168.0384-58.368 168.9088-1.1264 20.0704 5.6832 38.9632 19.0976 53.1456s31.8976 22.016 52.0704 22.016h665.6c20.1216 0 38.6048-7.8336 52.0704-22.016s20.224-33.0752 19.0976-53.1968c-0.0512-0.8192-5.6832-85.76-58.368-168.8576C787.9168 516.5056 671.6416 460.8 512.1024 460.8z" fill="" p-id="5108"></path><path d="M512 819.2c-84.6848 0-153.6-68.9152-153.6-153.6s68.9152-153.6 153.6-153.6 153.6 68.9152 153.6 153.6-68.9152 153.6-153.6 153.6z m0-256c-56.4736 0-102.4 45.9264-102.4 102.4s45.9264 102.4 102.4 102.4 102.4-45.9264 102.4-102.4-45.9264-102.4-102.4-102.4z" fill="" p-id="5109"></path></svg>